<svg xmlns="http://www.w3.org/2000/svg" data-name="Layer 1" viewBox="0 0 100 100"><title>05_collections</title><path d="M85.82 74.51l-.2.17C79 80.49 71.17 83 64.12 81.62c-6.36-1.26-10.91-5.46-15.3-9.52-4.76-4.4-9.25-8.55-15.87-9.26s-13.85 2.34-19.56 8.45c2.22 3.09 12.78 15.79 30 5.3a1 1 0 0 1 1 1.71c-5.18 3.15-9.84 4.34-13.91 4.34-12.25 0-19.19-10.76-19.28-10.91a1 1 0 0 1 .1-1.2c6.23-7 14.17-10.51 21.79-9.69 7.28.78 12.23 5.36 17 9.78 4.38 4 8.52 7.88 14.33 9 6.44 1.28 13.65-1.08 19.78-6.48l.24-.2a26.68 26.68 0 0 0 2.23-2c-3-7.08-11.17-8.72-12.8-9a36.92 36.92 0 0 1-9.55 4.13 1 1 0 0 1-.27 0 1 1 0 0 1-.27-2c10.19-2.9 16.5-8.43 18.78-16.42a24.11 24.11 0 0 0 .53-10.5c-13.83-1.42-19.66 6.85-20.52 8.2-.77 5.4-3.22 10.78-7.32 16.08a1 1 0 0 1-1.58-1.22c4-4.95 6.33-10.07 7.02-15.21a24.07 24.07 0 0 0 0-6.45c-1.32-10-8.65-17-10.86-18.91-11.56 10.7-9.49 22.26-7.04 28.46a38.83 38.83 0 0 1 2.4 4.71 1 1 0 0 1-1.74 1 26.32 26.32 0 0 1-2.25-4.45c-3.6-6.1-8.47-9.9-14.52-11.31a22.17 22.17 0 0 0-9.43-.13c-2.89 8.75 3.16 16.64 3.22 16.72a1 1 0 0 1-1.58 1.23c-.29-.37-7-9.14-3.35-19.15a1 1 0 0 1 .66-.61 23.88 23.88 0 0 1 23.28 7.5c-1.38-7.14-.54-17 9.67-26a1 1 0 0 1 1.27 0c.45.27 10.58 8.12 12.28 20.7a26.1 26.1 0 0 1 .22 3.69c3.07-3.23 9.68-8 21.21-6.59a1 1 0 0 1 .84.74c0 .18 3.59 14.77-8.74 24.3 3.52.9 10 3.45 12.58 10.28.32.79-.19 1.43-2.99 3.78z"/></svg>